Coordinates
version=1
nRows=19
nColumns=24
inDegrees=yes

Units are S.I. units (second, meters, Newtons, ...)
Angles are in degrees.

endheader
time	pelvis_tilt	pelvis_list	pelvis_rotation	pelvis_tx	pelvis_ty	pelvis_tz	hip_flexion_r	hip_adduction_r	hip_rotation_r	knee_angle_r	ankle_angle_r	subtalar_angle_r	mtp_angle_r	hip_flexion_l	hip_adduction_l	hip_rotation_l	knee_angle_l	ankle_angle_l	subtalar_angle_l	mtp_angle_l	lumbar_extension	lumbar_bending	lumbar_rotation
      0.69000000	     -5.74422724	      0.40370581	     -0.64665731	     -0.53222267	      1.04173504	      0.29454088	     21.76904768	      2.58588904	      0.99942345	    -31.10610972	     18.08185615	     -4.09536246	      3.85320376	     23.17013094	     -4.30591275	     -7.31210451	    -72.13278006	      9.63604334	     10.34560535	      5.07627833	     -6.29823023	      2.12808646	      1.57657619
      0.69416667	     -5.76055085	      0.53247913	     -0.63831309	     -0.52648531	      1.04334672	      0.29444676	     21.17082652	      2.42376735	      1.02590542	    -30.55507086	     18.12374566	     -4.02465997	      3.85273260	     23.72030187	     -4.12472107	     -7.42886794	    -71.60899833	      9.83314997	     10.33110289	      5.05157492	     -6.27053728	      1.99612086	      1.62021161
      0.69833333	     -5.73700201	      0.71075409	     -0.65097456	     -0.52080056	      1.04501861	      0.29435798	     20.54661764	      2.21195962	      1.07963192	    -30.02764603	     18.14696912	     -3.94612630	      3.85235032	     24.19985309	     -3.88407373	     -7.56124613	    -70.99179285	     10.02893449	     10.31536336	      5.00330841	     -6.34115658	      1.79852419	      1.71095118
      0.70250000	     -5.72491839	      0.86331566	     -0.66203084	     -0.51508271	      1.04662091	      0.29426524	     19.92426613	      2.02716934	      1.12172003	    -29.47781380	     18.16505811	     -3.87658487	      3.85257641	     24.68214119	     -3.67781618	     -7.69340084	    -70.33347966	     10.21237834	     10.30110852	      4.95998365	     -6.37240088	      1.63198875	      1.79487567
      0.70666667	     -5.72670732	      1.01219983	     -0.67860789	     -0.50934921	      1.04814628	      0.29417955	     19.31577168	      1.84777717	      1.16330813	    -28.92311033	     18.18133860	     -3.81355126	      3.85308019	     25.16597473	     -3.48168297	     -7.83282666	    -69.62619905	     10.38606946	     10.28270232	      4.93147377	     -6.36508989	      1.46270950	      1.85495010
      0.71083333	     -5.70735739	      1.18608638	     -0.71458037	     -0.50366470	      1.04966307	      0.29409971	     18.69959307	      1.64641782	      1.23790771	    -28.38950713	     18.18723207	     -3.75775792	      3.85427986	     25.60529185	     -3.25504944	     -7.97522775	    -68.84588755	     10.54120812	     10.25270903	      4.89092926	     -6.43085373	      1.27599418	      1.95424570
      0.71500000	     -5.66997266	      1.34631448	     -0.75555138	     -0.49796340	      1.05114654	      0.29402496	     18.06040440	      1.45952858	      1.30664575	    -27.84711735	     18.22660381	     -3.69596140	      3.85936134	     26.01189643	     -3.05036851	     -8.12358113	    -68.02267497	     10.67053847	     10.20231459	      4.82364619	     -6.49585350	      1.09344265	      2.10183965
      0.71916667	     -5.68754487	      1.49443634	     -0.79108896	     -0.49223748	      1.05247074	      0.29394019	     17.48251289	      1.28317050	      1.35794510	    -27.30600247	     18.20467091	     -3.64248918	      3.86005344	     26.46842999	     -2.86075304	     -8.26088473	    -67.16475435	     10.82443248	     10.16875029	      4.79750823	     -6.47920323	      0.91949945	      2.15014535
      0.72333333	     -5.65153114	      1.66073979	     -0.84769090	     -0.48656096	      1.05381981	      0.29386742	     16.85969425	      1.09288423	      1.44855332	    -26.78444728	     18.23314386	     -3.60325908	      3.86680590	     26.84644268	     -2.65130089	     -8.40409877	    -66.24204313	     10.91980550	     10.08173528	      4.72548307	     -6.56548488	      0.73920484	      2.31373394
      0.72750000	     -5.63500306	      1.82061981	     -0.90490357	     -0.48086697	      1.05508246	      0.29379280	     16.26043888	      0.90771285	      1.52479602	    -26.26356169	     18.22880151	     -3.57033707	      3.87147713	     27.23067687	     -2.45281324	     -8.54528595	    -65.27620269	     11.01783253	     10.00604998	      4.66980854	     -6.60654168	      0.55963556	      2.41124895
      0.73166667	     -5.61285018	      1.97380316	     -0.96609709	     -0.47519387	      1.05626150	      0.29372118	     15.66278465	      0.72998439	      1.60455960	    -25.75484438	     18.23492615	     -3.53615750	      3.87676953	     27.60043092	     -2.26410884	     -8.67844619	    -64.27959065	     11.09628818	      9.90977910	      4.61075198	     -6.65763581	      0.38591986	      2.52542983
      0.73583333	     -5.61688547	      2.12984418	     -1.03231375	     -0.46951738	      1.05731860	      0.29364646	     15.10581609	      0.54882459	      1.68432041	    -25.26877568	     18.22388591	     -3.50272338	      3.87953241	     27.98203282	     -2.07387867	     -8.80649555	    -63.23747007	     11.16330261	      9.81270387	      4.56967628	     -6.68286955	      0.21246474	      2.60964751
      0.74000000	     -5.59821295	      2.27396399	     -1.10392873	     -0.46385922	      1.05832376	      0.29357031	     14.52990490	      0.38060973	      1.76700081	    -24.79024869	     18.24431626	     -3.47520871	      3.88313163	     28.32859118	     -1.89881695	     -8.92827311	    -62.16408779	     11.20163731	      9.68206328	      4.52131269	     -6.73321420	      0.04906867	      2.73073950
      0.74416667	     -5.59719640	      2.40835723	     -1.17456513	     -0.45819358	      1.05922973	      0.29350828	     13.97711714	      0.22408301	      1.84794506	    -24.31804210	     18.24851012	     -3.44851548	      3.88514135	     28.68069301	     -1.73740142	     -9.03676611	    -61.05536293	     11.22623442	      9.55699766	      4.47899413	     -6.76578609	     -0.10596548	      2.83742219
      0.74833333	     -5.59354284	      2.54157081	     -1.24894533	     -0.45255124	      1.06003444	      0.29342874	     13.43476855	      0.06650346	      1.92711586	    -23.86926559	     18.27657270	     -3.42867953	      3.88715802	     29.02024522	     -1.57711748	     -9.13782820	    -59.91750968	     11.22392409	      9.40504309	      4.43212958	     -6.80418684	     -0.25688076	      2.96116534
      0.75250000	     -5.58611185	      2.66135936	     -1.32445694	     -0.44691744	      1.06076448	      0.29336178	     12.89513761	     -0.07588036	      2.00539077	    -23.43236860	     18.30091198	     -3.40987696	      3.88810465	     29.34412915	     -1.43458539	     -9.22688610	    -58.75109115	     11.20309600	      9.25022404	      4.38650734	     -6.85017414	     -0.39790466	      3.08202393
      0.75666667	     -5.59760811	      2.76077886	     -1.39857559	     -0.44129304	      1.06134943	      0.29327528	     12.38370614	     -0.19672354	      2.08102981	    -23.01123051	     18.36197005	     -3.38545486	      3.88951640	     29.68260039	     -1.31192831	     -9.29352509	    -57.56908836	     11.16670991	      9.06328768	      4.30503655	     -6.87954319	     -0.51541532	      3.27248759
      0.76083333	     -5.61389304	      2.87282848	     -1.47608409	     -0.43567102	      1.06186323	      0.29320274	     11.89340409	     -0.33233670	      2.14805888	    -22.61844523	     18.38533460	     -3.37343949	      3.88792539	     30.00588268	     -1.18076226	     -9.36125768	    -56.34110928	     11.10762783	      8.92250379	      4.25941187	     -6.89524744	     -0.63887350	      3.35404644
      0.76500000	     -5.62374040	      2.95985687	     -1.54840002	     -0.43006548	      1.06228064	      0.29311624	     11.39955696	     -0.44176320	      2.21308218	    -22.23289474	     18.43690661	     -3.36071416	      3.88523548	     30.31750310	     -1.07332441	     -9.40266715	    -55.10111324	     11.02801547	      8.74225204	      4.21190009	     -6.92857308	     -0.73903613	      3.46814381
